<svg xmlns="http://www.w3.org/2000/svg" xmlns:xlink="http://www.w3.org/1999/xlink" width="500" zoomAndPan="magnify" viewBox="0 0 375 374.999991" height="500" preserveAspectRatio="xMidYMid meet" version="1.0"><defs><g/></defs><g fill="#004aad" fill-opacity="1"><g transform="translate(5.376567, 218.003642)"><g><path d="M 15.828125 0 L 7.71875 0 L 7.71875 -61.453125 L 15.828125 -61.453125 Z M 15.828125 0 "/></g></g></g><g fill="#004aad" fill-opacity="1"><g transform="translate(28.88202, 218.003642)"><g><path d="M 52.328125 -19.5 C 51.578125 -13 49.179688 -7.984375 45.140625 -4.453125 C 41.097656 -0.921875 35.726562 0.84375 29.03125 0.84375 C 21.78125 0.84375 15.960938 -1.753906 11.578125 -6.953125 C 7.203125 -12.160156 5.015625 -19.128906 5.015625 -27.859375 L 5.015625 -33.765625 C 5.015625 -39.472656 6.035156 -44.492188 8.078125 -48.828125 C 10.117188 -53.160156 13.007812 -56.488281 16.75 -58.8125 C 20.5 -61.132812 24.832031 -62.296875 29.75 -62.296875 C 36.28125 -62.296875 41.515625 -60.472656 45.453125 -56.828125 C 49.390625 -53.179688 51.679688 -48.140625 52.328125 -41.703125 L 44.1875 -41.703125 C 43.488281 -46.597656 41.960938 -50.140625 39.609375 -52.328125 C 37.265625 -54.523438 33.976562 -55.625 29.75 -55.625 C 24.570312 -55.625 20.515625 -53.707031 17.578125 -49.875 C 14.640625 -46.050781 13.171875 -40.609375 13.171875 -33.546875 L 13.171875 -27.609375 C 13.171875 -20.929688 14.5625 -15.625 17.34375 -11.6875 C 20.132812 -7.75 24.03125 -5.78125 29.03125 -5.78125 C 33.539062 -5.78125 36.992188 -6.800781 39.390625 -8.84375 C 41.796875 -10.882812 43.394531 -14.4375 44.1875 -19.5 Z M 52.328125 -19.5 "/></g></g></g><g fill="#004aad" fill-opacity="1"><g transform="translate(85.134741, 218.003642)"><g><path d="M 25.234375 -27.390625 C 18.285156 -29.390625 13.226562 -31.84375 10.0625 -34.75 C 6.894531 -37.664062 5.3125 -41.265625 5.3125 -45.546875 C 5.3125 -50.378906 7.242188 -54.378906 11.109375 -57.546875 C 14.984375 -60.710938 20.015625 -62.296875 26.203125 -62.296875 C 30.429688 -62.296875 34.195312 -61.476562 37.5 -59.84375 C 40.800781 -58.21875 43.359375 -55.96875 45.171875 -53.09375 C 46.992188 -50.226562 47.90625 -47.09375 47.90625 -43.6875 L 39.765625 -43.6875 C 39.765625 -47.394531 38.582031 -50.3125 36.21875 -52.4375 C 33.851562 -54.5625 30.515625 -55.625 26.203125 -55.625 C 22.210938 -55.625 19.097656 -54.742188 16.859375 -52.984375 C 14.617188 -51.222656 13.5 -48.785156 13.5 -45.671875 C 13.5 -43.160156 14.5625 -41.039062 16.6875 -39.3125 C 18.8125 -37.582031 22.425781 -36 27.53125 -34.5625 C 32.644531 -33.132812 36.644531 -31.550781 39.53125 -29.8125 C 42.414062 -28.082031 44.550781 -26.0625 45.9375 -23.75 C 47.332031 -21.445312 48.03125 -18.734375 48.03125 -15.609375 C 48.03125 -10.628906 46.085938 -6.640625 42.203125 -3.640625 C 38.316406 -0.648438 33.125 0.84375 26.625 0.84375 C 22.40625 0.84375 18.46875 0.0351562 14.8125 -1.578125 C 11.15625 -3.203125 8.332031 -5.421875 6.34375 -8.234375 C 4.363281 -11.046875 3.375 -14.238281 3.375 -17.8125 L 11.515625 -17.8125 C 11.515625 -14.09375 12.882812 -11.15625 15.625 -9 C 18.375 -6.851562 22.039062 -5.78125 26.625 -5.78125 C 30.90625 -5.78125 34.1875 -6.648438 36.46875 -8.390625 C 38.75 -10.140625 39.890625 -12.519531 39.890625 -15.53125 C 39.890625 -18.539062 38.832031 -20.867188 36.71875 -22.515625 C 34.601562 -24.160156 30.773438 -25.785156 25.234375 -27.390625 Z M 25.234375 -27.390625 "/></g></g></g><g fill="#004aad" fill-opacity="1"><g transform="translate(136.407851, 218.003642)"><g><path d="M 15.828125 0 L 7.71875 0 L 7.71875 -61.453125 L 15.828125 -61.453125 Z M 15.828125 0 "/></g></g></g><g fill="#004aad" fill-opacity="1"><g transform="translate(174.963231, 161.751457)"><g><path d="M 4.984375 0 L 2.4375 0 L 2.4375 -19.34375 L 4.984375 -19.34375 Z M 4.984375 0 "/></g></g></g><g fill="#004aad" fill-opacity="1"><g transform="translate(182.365996, 161.751457)"><g><path d="M 4.1875 -14.375 L 4.265625 -12.578125 C 5.367188 -13.953125 6.804688 -14.640625 8.578125 -14.640625 C 11.609375 -14.640625 13.140625 -12.925781 13.171875 -9.5 L 13.171875 0 L 10.71875 0 L 10.71875 -9.515625 C 10.707031 -10.554688 10.46875 -11.320312 10 -11.8125 C 9.53125 -12.3125 8.804688 -12.5625 7.828125 -12.5625 C 7.023438 -12.5625 6.320312 -12.347656 5.71875 -11.921875 C 5.125 -11.492188 4.65625 -10.9375 4.3125 -10.25 L 4.3125 0 L 1.859375 0 L 1.859375 -14.375 Z M 4.1875 -14.375 "/></g></g></g><g fill="#004aad" fill-opacity="1"><g transform="translate(197.38416, 161.751457)"><g><path d="M 3.0625 0 L 3.0625 -12.484375 L 0.796875 -12.484375 L 0.796875 -14.375 L 3.0625 -14.375 L 3.0625 -15.859375 C 3.0625 -17.398438 3.472656 -18.585938 4.296875 -19.421875 C 5.128906 -20.265625 6.296875 -20.6875 7.796875 -20.6875 C 8.367188 -20.6875 8.929688 -20.613281 9.484375 -20.46875 L 9.359375 -18.46875 C 8.941406 -18.550781 8.5 -18.59375 8.03125 -18.59375 C 7.226562 -18.59375 6.609375 -18.359375 6.171875 -17.890625 C 5.742188 -17.429688 5.53125 -16.765625 5.53125 -15.890625 L 5.53125 -14.375 L 8.59375 -14.375 L 8.59375 -12.484375 L 5.53125 -12.484375 L 5.53125 0 Z M 3.0625 0 "/></g></g></g><g fill="#004aad" fill-opacity="1"><g transform="translate(206.833648, 161.751457)"><g><path d="M 1.203125 -7.328125 C 1.203125 -8.734375 1.476562 -10 2.03125 -11.125 C 2.59375 -12.25 3.363281 -13.113281 4.34375 -13.71875 C 5.332031 -14.332031 6.460938 -14.640625 7.734375 -14.640625 C 9.691406 -14.640625 11.273438 -13.960938 12.484375 -12.609375 C 13.691406 -11.253906 14.296875 -9.453125 14.296875 -7.203125 L 14.296875 -7.03125 C 14.296875 -5.632812 14.023438 -4.378906 13.484375 -3.265625 C 12.953125 -2.148438 12.1875 -1.28125 11.1875 -0.65625 C 10.195312 -0.0390625 9.054688 0.265625 7.765625 0.265625 C 5.816406 0.265625 4.234375 -0.410156 3.015625 -1.765625 C 1.804688 -3.117188 1.203125 -4.914062 1.203125 -7.15625 Z M 3.6875 -7.03125 C 3.6875 -5.4375 4.054688 -4.15625 4.796875 -3.1875 C 5.535156 -2.21875 6.523438 -1.734375 7.765625 -1.734375 C 9.015625 -1.734375 10.003906 -2.222656 10.734375 -3.203125 C 11.472656 -4.179688 11.84375 -5.554688 11.84375 -7.328125 C 11.84375 -8.898438 11.46875 -10.175781 10.71875 -11.15625 C 9.96875 -12.132812 8.972656 -12.625 7.734375 -12.625 C 6.523438 -12.625 5.546875 -12.140625 4.796875 -11.171875 C 4.054688 -10.210938 3.6875 -8.832031 3.6875 -7.03125 Z M 3.6875 -7.03125 "/></g></g></g><g fill="#004aad" fill-opacity="1"><g transform="translate(222.356848, 161.751457)"><g><path d="M 8.8125 -12.171875 C 8.4375 -12.234375 8.035156 -12.265625 7.609375 -12.265625 C 5.992188 -12.265625 4.894531 -11.578125 4.3125 -10.203125 L 4.3125 0 L 1.859375 0 L 1.859375 -14.375 L 4.25 -14.375 L 4.296875 -12.71875 C 5.097656 -14 6.238281 -14.640625 7.71875 -14.640625 C 8.195312 -14.640625 8.5625 -14.578125 8.8125 -14.453125 Z M 8.8125 -12.171875 "/></g></g></g><g fill="#004aad" fill-opacity="1"><g transform="translate(231.567109, 161.751457)"><g><path d="M 4.171875 -14.375 L 4.234375 -12.78125 C 5.296875 -14.019531 6.71875 -14.640625 8.5 -14.640625 C 10.507812 -14.640625 11.878906 -13.867188 12.609375 -12.328125 C 13.085938 -13.023438 13.707031 -13.582031 14.46875 -14 C 15.238281 -14.425781 16.148438 -14.640625 17.203125 -14.640625 C 20.347656 -14.640625 21.953125 -12.972656 22.015625 -9.640625 L 22.015625 0 L 19.546875 0 L 19.546875 -9.484375 C 19.546875 -10.515625 19.3125 -11.285156 18.84375 -11.796875 C 18.375 -12.304688 17.585938 -12.5625 16.484375 -12.5625 C 15.566406 -12.5625 14.804688 -12.285156 14.203125 -11.734375 C 13.597656 -11.191406 13.25 -10.460938 13.15625 -9.546875 L 13.15625 0 L 10.6875 0 L 10.6875 -9.421875 C 10.6875 -11.515625 9.660156 -12.5625 7.609375 -12.5625 C 6.003906 -12.5625 4.90625 -11.875 4.3125 -10.5 L 4.3125 0 L 1.84375 0 L 1.84375 -14.375 Z M 4.171875 -14.375 "/></g></g></g><g fill="#004aad" fill-opacity="1"><g transform="translate(255.423402, 161.751457)"><g><path d="M 10.734375 0 C 10.597656 -0.28125 10.484375 -0.785156 10.390625 -1.515625 C 9.242188 -0.328125 7.878906 0.265625 6.296875 0.265625 C 4.878906 0.265625 3.71875 -0.132812 2.8125 -0.9375 C 1.90625 -1.738281 1.453125 -2.753906 1.453125 -3.984375 C 1.453125 -5.484375 2.019531 -6.644531 3.15625 -7.46875 C 4.289062 -8.300781 5.894531 -8.71875 7.96875 -8.71875 L 10.359375 -8.71875 L 10.359375 -9.84375 C 10.359375 -10.707031 10.097656 -11.394531 9.578125 -11.90625 C 9.066406 -12.414062 8.3125 -12.671875 7.3125 -12.671875 C 6.4375 -12.671875 5.703125 -12.445312 5.109375 -12 C 4.515625 -11.5625 4.21875 -11.023438 4.21875 -10.390625 L 1.734375 -10.390625 C 1.734375 -11.109375 1.988281 -11.800781 2.5 -12.46875 C 3.007812 -13.132812 3.703125 -13.660156 4.578125 -14.046875 C 5.453125 -14.441406 6.410156 -14.640625 7.453125 -14.640625 C 9.109375 -14.640625 10.40625 -14.222656 11.34375 -13.390625 C 12.289062 -12.566406 12.78125 -11.429688 12.8125 -9.984375 L 12.8125 -3.359375 C 12.8125 -2.035156 12.976562 -0.988281 13.3125 -0.21875 L 13.3125 0 Z M 6.65625 -1.875 C 7.425781 -1.875 8.15625 -2.070312 8.84375 -2.46875 C 9.539062 -2.863281 10.046875 -3.382812 10.359375 -4.03125 L 10.359375 -6.984375 L 8.421875 -6.984375 C 5.410156 -6.984375 3.90625 -6.097656 3.90625 -4.328125 C 3.90625 -3.554688 4.160156 -2.953125 4.671875 -2.515625 C 5.191406 -2.085938 5.851562 -1.875 6.65625 -1.875 Z M 6.65625 -1.875 "/></g></g></g><g fill="#004aad" fill-opacity="1"><g transform="translate(270.22892, 161.751457)"><g><path d="M 5.203125 -17.859375 L 5.203125 -14.375 L 7.875 -14.375 L 7.875 -12.484375 L 5.203125 -12.484375 L 5.203125 -3.5625 C 5.203125 -2.988281 5.320312 -2.554688 5.5625 -2.265625 C 5.800781 -1.972656 6.207031 -1.828125 6.78125 -1.828125 C 7.0625 -1.828125 7.453125 -1.882812 7.953125 -2 L 7.953125 0 C 7.304688 0.175781 6.675781 0.265625 6.0625 0.265625 C 4.957031 0.265625 4.125 -0.0664062 3.5625 -0.734375 C 3.007812 -1.398438 2.734375 -2.34375 2.734375 -3.5625 L 2.734375 -12.484375 L 0.125 -12.484375 L 0.125 -14.375 L 2.734375 -14.375 L 2.734375 -17.859375 Z M 5.203125 -17.859375 "/></g></g></g><g fill="#004aad" fill-opacity="1"><g transform="translate(279.120211, 161.751457)"><g><path d="M 4.53125 0 L 2.078125 0 L 2.078125 -14.375 L 4.53125 -14.375 Z M 1.875 -18.1875 C 1.875 -18.59375 1.992188 -18.929688 2.234375 -19.203125 C 2.484375 -19.472656 2.847656 -19.609375 3.328125 -19.609375 C 3.804688 -19.609375 4.164062 -19.472656 4.40625 -19.203125 C 4.65625 -18.929688 4.78125 -18.59375 4.78125 -18.1875 C 4.78125 -17.789062 4.65625 -17.457031 4.40625 -17.1875 C 4.164062 -16.925781 3.804688 -16.796875 3.328125 -16.796875 C 2.847656 -16.796875 2.484375 -16.925781 2.234375 -17.1875 C 1.992188 -17.457031 1.875 -17.789062 1.875 -18.1875 Z M 1.875 -18.1875 "/></g></g></g><g fill="#004aad" fill-opacity="1"><g transform="translate(285.725551, 161.751457)"><g><path d="M 1.203125 -7.328125 C 1.203125 -8.734375 1.476562 -10 2.03125 -11.125 C 2.59375 -12.25 3.363281 -13.113281 4.34375 -13.71875 C 5.332031 -14.332031 6.460938 -14.640625 7.734375 -14.640625 C 9.691406 -14.640625 11.273438 -13.960938 12.484375 -12.609375 C 13.691406 -11.253906 14.296875 -9.453125 14.296875 -7.203125 L 14.296875 -7.03125 C 14.296875 -5.632812 14.023438 -4.378906 13.484375 -3.265625 C 12.953125 -2.148438 12.1875 -1.28125 11.1875 -0.65625 C 10.195312 -0.0390625 9.054688 0.265625 7.765625 0.265625 C 5.816406 0.265625 4.234375 -0.410156 3.015625 -1.765625 C 1.804688 -3.117188 1.203125 -4.914062 1.203125 -7.15625 Z M 3.6875 -7.03125 C 3.6875 -5.4375 4.054688 -4.15625 4.796875 -3.1875 C 5.535156 -2.21875 6.523438 -1.734375 7.765625 -1.734375 C 9.015625 -1.734375 10.003906 -2.222656 10.734375 -3.203125 C 11.472656 -4.179688 11.84375 -5.554688 11.84375 -7.328125 C 11.84375 -8.898438 11.46875 -10.175781 10.71875 -11.15625 C 9.96875 -12.132812 8.972656 -12.625 7.734375 -12.625 C 6.523438 -12.625 5.546875 -12.140625 4.796875 -11.171875 C 4.054688 -10.210938 3.6875 -8.832031 3.6875 -7.03125 Z M 3.6875 -7.03125 "/></g></g></g><g fill="#004aad" fill-opacity="1"><g transform="translate(301.248751, 161.751457)"><g><path d="M 4.1875 -14.375 L 4.265625 -12.578125 C 5.367188 -13.953125 6.804688 -14.640625 8.578125 -14.640625 C 11.609375 -14.640625 13.140625 -12.925781 13.171875 -9.5 L 13.171875 0 L 10.71875 0 L 10.71875 -9.515625 C 10.707031 -10.554688 10.46875 -11.320312 10 -11.8125 C 9.53125 -12.3125 8.804688 -12.5625 7.828125 -12.5625 C 7.023438 -12.5625 6.320312 -12.347656 5.71875 -11.921875 C 5.125 -11.492188 4.65625 -10.9375 4.3125 -10.25 L 4.3125 0 L 1.859375 0 L 1.859375 -14.375 Z M 4.1875 -14.375 "/></g></g></g><g fill="#004aad" fill-opacity="1"><g transform="translate(316.266915, 161.751457)"><g/></g></g><g fill="#004aad" fill-opacity="1"><g transform="translate(323.00516, 161.751457)"><g><path d="M 10.734375 0 C 10.597656 -0.28125 10.484375 -0.785156 10.390625 -1.515625 C 9.242188 -0.328125 7.878906 0.265625 6.296875 0.265625 C 4.878906 0.265625 3.71875 -0.132812 2.8125 -0.9375 C 1.90625 -1.738281 1.453125 -2.753906 1.453125 -3.984375 C 1.453125 -5.484375 2.019531 -6.644531 3.15625 -7.46875 C 4.289062 -8.300781 5.894531 -8.71875 7.96875 -8.71875 L 10.359375 -8.71875 L 10.359375 -9.84375 C 10.359375 -10.707031 10.097656 -11.394531 9.578125 -11.90625 C 9.066406 -12.414062 8.3125 -12.671875 7.3125 -12.671875 C 6.4375 -12.671875 5.703125 -12.445312 5.109375 -12 C 4.515625 -11.5625 4.21875 -11.023438 4.21875 -10.390625 L 1.734375 -10.390625 C 1.734375 -11.109375 1.988281 -11.800781 2.5 -12.46875 C 3.007812 -13.132812 3.703125 -13.660156 4.578125 -14.046875 C 5.453125 -14.441406 6.410156 -14.640625 7.453125 -14.640625 C 9.109375 -14.640625 10.40625 -14.222656 11.34375 -13.390625 C 12.289062 -12.566406 12.78125 -11.429688 12.8125 -9.984375 L 12.8125 -3.359375 C 12.8125 -2.035156 12.976562 -0.988281 13.3125 -0.21875 L 13.3125 0 Z M 6.65625 -1.875 C 7.425781 -1.875 8.15625 -2.070312 8.84375 -2.46875 C 9.539062 -2.863281 10.046875 -3.382812 10.359375 -4.03125 L 10.359375 -6.984375 L 8.421875 -6.984375 C 5.410156 -6.984375 3.90625 -6.097656 3.90625 -4.328125 C 3.90625 -3.554688 4.160156 -2.953125 4.671875 -2.515625 C 5.191406 -2.085938 5.851562 -1.875 6.65625 -1.875 Z M 6.65625 -1.875 "/></g></g></g><g fill="#004aad" fill-opacity="1"><g transform="translate(337.810677, 161.751457)"><g><path d="M 4.1875 -14.375 L 4.265625 -12.578125 C 5.367188 -13.953125 6.804688 -14.640625 8.578125 -14.640625 C 11.609375 -14.640625 13.140625 -12.925781 13.171875 -9.5 L 13.171875 0 L 10.71875 0 L 10.71875 -9.515625 C 10.707031 -10.554688 10.46875 -11.320312 10 -11.8125 C 9.53125 -12.3125 8.804688 -12.5625 7.828125 -12.5625 C 7.023438 -12.5625 6.320312 -12.347656 5.71875 -11.921875 C 5.125 -11.492188 4.65625 -10.9375 4.3125 -10.25 L 4.3125 0 L 1.859375 0 L 1.859375 -14.375 Z M 4.1875 -14.375 "/></g></g></g><g fill="#004aad" fill-opacity="1"><g transform="translate(352.828841, 161.751457)"><g><path d="M 1.265625 -7.3125 C 1.265625 -9.519531 1.785156 -11.289062 2.828125 -12.625 C 3.878906 -13.96875 5.25 -14.640625 6.9375 -14.640625 C 8.625 -14.640625 9.957031 -14.066406 10.9375 -12.921875 L 10.9375 -20.421875 L 13.390625 -20.421875 L 13.390625 0 L 11.140625 0 L 11.015625 -1.546875 C 10.035156 -0.335938 8.664062 0.265625 6.90625 0.265625 C 5.238281 0.265625 3.878906 -0.414062 2.828125 -1.78125 C 1.785156 -3.144531 1.265625 -4.925781 1.265625 -7.125 Z M 3.71875 -7.03125 C 3.71875 -5.394531 4.050781 -4.117188 4.71875 -3.203125 C 5.394531 -2.285156 6.328125 -1.828125 7.515625 -1.828125 C 9.078125 -1.828125 10.21875 -2.523438 10.9375 -3.921875 L 10.9375 -10.53125 C 10.195312 -11.882812 9.066406 -12.5625 7.546875 -12.5625 C 6.335938 -12.5625 5.394531 -12.09375 4.71875 -11.15625 C 4.050781 -10.226562 3.71875 -8.851562 3.71875 -7.03125 Z M 3.71875 -7.03125 "/></g></g></g><g fill="#004aad" fill-opacity="1"><g transform="translate(368.186951, 161.751457)"><g/></g></g><g fill="#004aad" fill-opacity="1"><g transform="translate(174.963231, 199.496173)"><g><path d="M 16.484375 -6.140625 C 16.242188 -4.085938 15.488281 -2.503906 14.21875 -1.390625 C 12.945312 -0.285156 11.253906 0.265625 9.140625 0.265625 C 6.859375 0.265625 5.023438 -0.550781 3.640625 -2.1875 C 2.265625 -3.832031 1.578125 -6.023438 1.578125 -8.765625 L 1.578125 -10.625 C 1.578125 -12.425781 1.898438 -14.007812 2.546875 -15.375 C 3.191406 -16.738281 4.101562 -17.785156 5.28125 -18.515625 C 6.457031 -19.242188 7.820312 -19.609375 9.375 -19.609375 C 11.425781 -19.609375 13.070312 -19.035156 14.3125 -17.890625 C 15.550781 -16.742188 16.273438 -15.15625 16.484375 -13.125 L 13.921875 -13.125 C 13.691406 -14.664062 13.207031 -15.78125 12.46875 -16.46875 C 11.726562 -17.164062 10.695312 -17.515625 9.375 -17.515625 C 7.738281 -17.515625 6.457031 -16.910156 5.53125 -15.703125 C 4.601562 -14.503906 4.140625 -12.789062 4.140625 -10.5625 L 4.140625 -8.6875 C 4.140625 -6.59375 4.578125 -4.925781 5.453125 -3.6875 C 6.335938 -2.445312 7.566406 -1.828125 9.140625 -1.828125 C 10.554688 -1.828125 11.644531 -2.144531 12.40625 -2.78125 C 13.164062 -3.425781 13.671875 -4.546875 13.921875 -6.140625 Z M 16.484375 -6.140625 "/></g></g></g><g fill="#004aad" fill-opacity="1"><g transform="translate(192.679354, 199.496173)"><g><path d="M 1.203125 -7.328125 C 1.203125 -8.734375 1.476562 -10 2.03125 -11.125 C 2.59375 -12.25 3.363281 -13.113281 4.34375 -13.71875 C 5.332031 -14.332031 6.460938 -14.640625 7.734375 -14.640625 C 9.691406 -14.640625 11.273438 -13.960938 12.484375 -12.609375 C 13.691406 -11.253906 14.296875 -9.453125 14.296875 -7.203125 L 14.296875 -7.03125 C 14.296875 -5.632812 14.023438 -4.378906 13.484375 -3.265625 C 12.953125 -2.148438 12.1875 -1.28125 11.1875 -0.65625 C 10.195312 -0.0390625 9.054688 0.265625 7.765625 0.265625 C 5.816406 0.265625 4.234375 -0.410156 3.015625 -1.765625 C 1.804688 -3.117188 1.203125 -4.914062 1.203125 -7.15625 Z M 3.6875 -7.03125 C 3.6875 -5.4375 4.054688 -4.15625 4.796875 -3.1875 C 5.535156 -2.21875 6.523438 -1.734375 7.765625 -1.734375 C 9.015625 -1.734375 10.003906 -2.222656 10.734375 -3.203125 C 11.472656 -4.179688 11.84375 -5.554688 11.84375 -7.328125 C 11.84375 -8.898438 11.46875 -10.175781 10.71875 -11.15625 C 9.96875 -12.132812 8.972656 -12.625 7.734375 -12.625 C 6.523438 -12.625 5.546875 -12.140625 4.796875 -11.171875 C 4.054688 -10.210938 3.6875 -8.832031 3.6875 -7.03125 Z M 3.6875 -7.03125 "/></g></g></g><g fill="#004aad" fill-opacity="1"><g transform="translate(208.202554, 199.496173)"><g><path d="M 4.171875 -14.375 L 4.234375 -12.78125 C 5.296875 -14.019531 6.71875 -14.640625 8.5 -14.640625 C 10.507812 -14.640625 11.878906 -13.867188 12.609375 -12.328125 C 13.085938 -13.023438 13.707031 -13.582031 14.46875 -14 C 15.238281 -14.425781 16.148438 -14.640625 17.203125 -14.640625 C 20.347656 -14.640625 21.953125 -12.972656 22.015625 -9.640625 L 22.015625 0 L 19.546875 0 L 19.546875 -9.484375 C 19.546875 -10.515625 19.3125 -11.285156 18.84375 -11.796875 C 18.375 -12.304688 17.585938 -12.5625 16.484375 -12.5625 C 15.566406 -12.5625 14.804688 -12.285156 14.203125 -11.734375 C 13.597656 -11.191406 13.25 -10.460938 13.15625 -9.546875 L 13.15625 0 L 10.6875 0 L 10.6875 -9.421875 C 10.6875 -11.515625 9.660156 -12.5625 7.609375 -12.5625 C 6.003906 -12.5625 4.90625 -11.875 4.3125 -10.5 L 4.3125 0 L 1.84375 0 L 1.84375 -14.375 Z M 4.171875 -14.375 "/></g></g></g><g fill="#004aad" fill-opacity="1"><g transform="translate(232.058848, 199.496173)"><g><path d="M 4.171875 -14.375 L 4.234375 -12.78125 C 5.296875 -14.019531 6.71875 -14.640625 8.5 -14.640625 C 10.507812 -14.640625 11.878906 -13.867188 12.609375 -12.328125 C 13.085938 -13.023438 13.707031 -13.582031 14.46875 -14 C 15.238281 -14.425781 16.148438 -14.640625 17.203125 -14.640625 C 20.347656 -14.640625 21.953125 -12.972656 22.015625 -9.640625 L 22.015625 0 L 19.546875 0 L 19.546875 -9.484375 C 19.546875 -10.515625 19.3125 -11.285156 18.84375 -11.796875 C 18.375 -12.304688 17.585938 -12.5625 16.484375 -12.5625 C 15.566406 -12.5625 14.804688 -12.285156 14.203125 -11.734375 C 13.597656 -11.191406 13.25 -10.460938 13.15625 -9.546875 L 13.15625 0 L 10.6875 0 L 10.6875 -9.421875 C 10.6875 -11.515625 9.660156 -12.5625 7.609375 -12.5625 C 6.003906 -12.5625 4.90625 -11.875 4.3125 -10.5 L 4.3125 0 L 1.84375 0 L 1.84375 -14.375 Z M 4.171875 -14.375 "/></g></g></g><g fill="#004aad" fill-opacity="1"><g transform="translate(255.915141, 199.496173)"><g><path d="M 10.734375 -1.421875 C 9.773438 -0.296875 8.375 0.265625 6.53125 0.265625 C 4.988281 0.265625 3.816406 -0.175781 3.015625 -1.0625 C 2.222656 -1.957031 1.820312 -3.28125 1.8125 -5.03125 L 1.8125 -14.375 L 4.265625 -14.375 L 4.265625 -5.09375 C 4.265625 -2.914062 5.148438 -1.828125 6.921875 -1.828125 C 8.796875 -1.828125 10.046875 -2.523438 10.671875 -3.921875 L 10.671875 -14.375 L 13.125 -14.375 L 13.125 0 L 10.796875 0 Z M 10.734375 -1.421875 "/></g></g></g><g fill="#004aad" fill-opacity="1"><g transform="translate(270.920022, 199.496173)"><g><path d="M 4.1875 -14.375 L 4.265625 -12.578125 C 5.367188 -13.953125 6.804688 -14.640625 8.578125 -14.640625 C 11.609375 -14.640625 13.140625 -12.925781 13.171875 -9.5 L 13.171875 0 L 10.71875 0 L 10.71875 -9.515625 C 10.707031 -10.554688 10.46875 -11.320312 10 -11.8125 C 9.53125 -12.3125 8.804688 -12.5625 7.828125 -12.5625 C 7.023438 -12.5625 6.320312 -12.347656 5.71875 -11.921875 C 5.125 -11.492188 4.65625 -10.9375 4.3125 -10.25 L 4.3125 0 L 1.859375 0 L 1.859375 -14.375 Z M 4.1875 -14.375 "/></g></g></g><g fill="#004aad" fill-opacity="1"><g transform="translate(285.938186, 199.496173)"><g><path d="M 4.53125 0 L 2.078125 0 L 2.078125 -14.375 L 4.53125 -14.375 Z M 1.875 -18.1875 C 1.875 -18.59375 1.992188 -18.929688 2.234375 -19.203125 C 2.484375 -19.472656 2.847656 -19.609375 3.328125 -19.609375 C 3.804688 -19.609375 4.164062 -19.472656 4.40625 -19.203125 C 4.65625 -18.929688 4.78125 -18.59375 4.78125 -18.1875 C 4.78125 -17.789062 4.65625 -17.457031 4.40625 -17.1875 C 4.164062 -16.925781 3.804688 -16.796875 3.328125 -16.796875 C 2.847656 -16.796875 2.484375 -16.925781 2.234375 -17.1875 C 1.992188 -17.457031 1.875 -17.789062 1.875 -18.1875 Z M 1.875 -18.1875 "/></g></g></g><g fill="#004aad" fill-opacity="1"><g transform="translate(292.543526, 199.496173)"><g><path d="M 7.625 -1.734375 C 8.5 -1.734375 9.265625 -2 9.921875 -2.53125 C 10.578125 -3.0625 10.941406 -3.726562 11.015625 -4.53125 L 13.34375 -4.53125 C 13.300781 -3.707031 13.015625 -2.921875 12.484375 -2.171875 C 11.960938 -1.429688 11.265625 -0.835938 10.390625 -0.390625 C 9.523438 0.046875 8.601562 0.265625 7.625 0.265625 C 5.664062 0.265625 4.109375 -0.382812 2.953125 -1.6875 C 1.796875 -3 1.21875 -4.789062 1.21875 -7.0625 L 1.21875 -7.46875 C 1.21875 -8.863281 1.472656 -10.109375 1.984375 -11.203125 C 2.503906 -12.296875 3.242188 -13.140625 4.203125 -13.734375 C 5.160156 -14.335938 6.296875 -14.640625 7.609375 -14.640625 C 9.222656 -14.640625 10.5625 -14.15625 11.625 -13.1875 C 12.695312 -12.226562 13.269531 -10.976562 13.34375 -9.4375 L 11.015625 -9.4375 C 10.941406 -10.363281 10.585938 -11.125 9.953125 -11.71875 C 9.328125 -12.320312 8.546875 -12.625 7.609375 -12.625 C 6.359375 -12.625 5.390625 -12.171875 4.703125 -11.265625 C 4.023438 -10.367188 3.6875 -9.070312 3.6875 -7.375 L 3.6875 -6.90625 C 3.6875 -5.25 4.023438 -3.972656 4.703125 -3.078125 C 5.390625 -2.179688 6.363281 -1.734375 7.625 -1.734375 Z M 7.625 -1.734375 "/></g></g></g><g fill="#004aad" fill-opacity="1"><g transform="translate(306.790846, 199.496173)"><g><path d="M 10.734375 0 C 10.597656 -0.28125 10.484375 -0.785156 10.390625 -1.515625 C 9.242188 -0.328125 7.878906 0.265625 6.296875 0.265625 C 4.878906 0.265625 3.71875 -0.132812 2.8125 -0.9375 C 1.90625 -1.738281 1.453125 -2.753906 1.453125 -3.984375 C 1.453125 -5.484375 2.019531 -6.644531 3.15625 -7.46875 C 4.289062 -8.300781 5.894531 -8.71875 7.96875 -8.71875 L 10.359375 -8.71875 L 10.359375 -9.84375 C 10.359375 -10.707031 10.097656 -11.394531 9.578125 -11.90625 C 9.066406 -12.414062 8.3125 -12.671875 7.3125 -12.671875 C 6.4375 -12.671875 5.703125 -12.445312 5.109375 -12 C 4.515625 -11.5625 4.21875 -11.023438 4.21875 -10.390625 L 1.734375 -10.390625 C 1.734375 -11.109375 1.988281 -11.800781 2.5 -12.46875 C 3.007812 -13.132812 3.703125 -13.660156 4.578125 -14.046875 C 5.453125 -14.441406 6.410156 -14.640625 7.453125 -14.640625 C 9.109375 -14.640625 10.40625 -14.222656 11.34375 -13.390625 C 12.289062 -12.566406 12.78125 -11.429688 12.8125 -9.984375 L 12.8125 -3.359375 C 12.8125 -2.035156 12.976562 -0.988281 13.3125 -0.21875 L 13.3125 0 Z M 6.65625 -1.875 C 7.425781 -1.875 8.15625 -2.070312 8.84375 -2.46875 C 9.539062 -2.863281 10.046875 -3.382812 10.359375 -4.03125 L 10.359375 -6.984375 L 8.421875 -6.984375 C 5.410156 -6.984375 3.90625 -6.097656 3.90625 -4.328125 C 3.90625 -3.554688 4.160156 -2.953125 4.671875 -2.515625 C 5.191406 -2.085938 5.851562 -1.875 6.65625 -1.875 Z M 6.65625 -1.875 "/></g></g></g><g fill="#004aad" fill-opacity="1"><g transform="translate(321.596364, 199.496173)"><g><path d="M 5.203125 -17.859375 L 5.203125 -14.375 L 7.875 -14.375 L 7.875 -12.484375 L 5.203125 -12.484375 L 5.203125 -3.5625 C 5.203125 -2.988281 5.320312 -2.554688 5.5625 -2.265625 C 5.800781 -1.972656 6.207031 -1.828125 6.78125 -1.828125 C 7.0625 -1.828125 7.453125 -1.882812 7.953125 -2 L 7.953125 0 C 7.304688 0.175781 6.675781 0.265625 6.0625 0.265625 C 4.957031 0.265625 4.125 -0.0664062 3.5625 -0.734375 C 3.007812 -1.398438 2.734375 -2.34375 2.734375 -3.5625 L 2.734375 -12.484375 L 0.125 -12.484375 L 0.125 -14.375 L 2.734375 -14.375 L 2.734375 -17.859375 Z M 5.203125 -17.859375 "/></g></g></g><g fill="#004aad" fill-opacity="1"><g transform="translate(330.487655, 199.496173)"><g><path d="M 4.53125 0 L 2.078125 0 L 2.078125 -14.375 L 4.53125 -14.375 Z M 1.875 -18.1875 C 1.875 -18.59375 1.992188 -18.929688 2.234375 -19.203125 C 2.484375 -19.472656 2.847656 -19.609375 3.328125 -19.609375 C 3.804688 -19.609375 4.164062 -19.472656 4.40625 -19.203125 C 4.65625 -18.929688 4.78125 -18.59375 4.78125 -18.1875 C 4.78125 -17.789062 4.65625 -17.457031 4.40625 -17.1875 C 4.164062 -16.925781 3.804688 -16.796875 3.328125 -16.796875 C 2.847656 -16.796875 2.484375 -16.925781 2.234375 -17.1875 C 1.992188 -17.457031 1.875 -17.789062 1.875 -18.1875 Z M 1.875 -18.1875 "/></g></g></g><g fill="#004aad" fill-opacity="1"><g transform="translate(337.092995, 199.496173)"><g><path d="M 1.203125 -7.328125 C 1.203125 -8.734375 1.476562 -10 2.03125 -11.125 C 2.59375 -12.25 3.363281 -13.113281 4.34375 -13.71875 C 5.332031 -14.332031 6.460938 -14.640625 7.734375 -14.640625 C 9.691406 -14.640625 11.273438 -13.960938 12.484375 -12.609375 C 13.691406 -11.253906 14.296875 -9.453125 14.296875 -7.203125 L 14.296875 -7.03125 C 14.296875 -5.632812 14.023438 -4.378906 13.484375 -3.265625 C 12.953125 -2.148438 12.1875 -1.28125 11.1875 -0.65625 C 10.195312 -0.0390625 9.054688 0.265625 7.765625 0.265625 C 5.816406 0.265625 4.234375 -0.410156 3.015625 -1.765625 C 1.804688 -3.117188 1.203125 -4.914062 1.203125 -7.15625 Z M 3.6875 -7.03125 C 3.6875 -5.4375 4.054688 -4.15625 4.796875 -3.1875 C 5.535156 -2.21875 6.523438 -1.734375 7.765625 -1.734375 C 9.015625 -1.734375 10.003906 -2.222656 10.734375 -3.203125 C 11.472656 -4.179688 11.84375 -5.554688 11.84375 -7.328125 C 11.84375 -8.898438 11.46875 -10.175781 10.71875 -11.15625 C 9.96875 -12.132812 8.972656 -12.625 7.734375 -12.625 C 6.523438 -12.625 5.546875 -12.140625 4.796875 -11.171875 C 4.054688 -10.210938 3.6875 -8.832031 3.6875 -7.03125 Z M 3.6875 -7.03125 "/></g></g></g><g fill="#004aad" fill-opacity="1"><g transform="translate(352.616195, 199.496173)"><g><path d="M 4.1875 -14.375 L 4.265625 -12.578125 C 5.367188 -13.953125 6.804688 -14.640625 8.578125 -14.640625 C 11.609375 -14.640625 13.140625 -12.925781 13.171875 -9.5 L 13.171875 0 L 10.71875 0 L 10.71875 -9.515625 C 10.707031 -10.554688 10.46875 -11.320312 10 -11.8125 C 9.53125 -12.3125 8.804688 -12.5625 7.828125 -12.5625 C 7.023438 -12.5625 6.320312 -12.347656 5.71875 -11.921875 C 5.125 -11.492188 4.65625 -10.9375 4.3125 -10.25 L 4.3125 0 L 1.859375 0 L 1.859375 -14.375 Z M 4.1875 -14.375 "/></g></g></g><g fill="#004aad" fill-opacity="1"><g transform="translate(367.635649, 199.496173)"><g/></g></g><g fill="#004aad" fill-opacity="1"><g transform="translate(174.963231, 237.24089)"><g><path d="M 7.953125 -8.625 C 5.765625 -9.25 4.171875 -10.019531 3.171875 -10.9375 C 2.171875 -11.851562 1.671875 -12.988281 1.671875 -14.34375 C 1.671875 -15.863281 2.28125 -17.117188 3.5 -18.109375 C 4.71875 -19.109375 6.300781 -19.609375 8.25 -19.609375 C 9.582031 -19.609375 10.769531 -19.351562 11.8125 -18.84375 C 12.851562 -18.332031 13.65625 -17.625 14.21875 -16.71875 C 14.789062 -15.8125 15.078125 -14.820312 15.078125 -13.75 L 12.515625 -13.75 C 12.515625 -14.925781 12.140625 -15.847656 11.390625 -16.515625 C 10.648438 -17.179688 9.601562 -17.515625 8.25 -17.515625 C 6.988281 -17.515625 6.003906 -17.238281 5.296875 -16.6875 C 4.597656 -16.132812 4.25 -15.363281 4.25 -14.375 C 4.25 -13.59375 4.582031 -12.925781 5.25 -12.375 C 5.925781 -11.832031 7.066406 -11.332031 8.671875 -10.875 C 10.273438 -10.425781 11.53125 -9.929688 12.4375 -9.390625 C 13.351562 -8.847656 14.03125 -8.210938 14.46875 -7.484375 C 14.90625 -6.753906 15.125 -5.898438 15.125 -4.921875 C 15.125 -3.347656 14.507812 -2.085938 13.28125 -1.140625 C 12.0625 -0.203125 10.429688 0.265625 8.390625 0.265625 C 7.054688 0.265625 5.8125 0.0078125 4.65625 -0.5 C 3.507812 -1.007812 2.625 -1.707031 2 -2.59375 C 1.375 -3.476562 1.0625 -4.484375 1.0625 -5.609375 L 3.625 -5.609375 C 3.625 -4.441406 4.054688 -3.519531 4.921875 -2.84375 C 5.785156 -2.164062 6.941406 -1.828125 8.390625 -1.828125 C 9.734375 -1.828125 10.765625 -2.097656 11.484375 -2.640625 C 12.203125 -3.191406 12.5625 -3.941406 12.5625 -4.890625 C 12.5625 -5.835938 12.226562 -6.570312 11.5625 -7.09375 C 10.894531 -7.613281 9.691406 -8.125 7.953125 -8.625 Z M 7.953125 -8.625 "/></g></g></g><g fill="#004aad" fill-opacity="1"><g transform="translate(191.111086, 237.24089)"><g><path d="M 1.203125 -7.328125 C 1.203125 -8.734375 1.476562 -10 2.03125 -11.125 C 2.59375 -12.25 3.363281 -13.113281 4.34375 -13.71875 C 5.332031 -14.332031 6.460938 -14.640625 7.734375 -14.640625 C 9.691406 -14.640625 11.273438 -13.960938 12.484375 -12.609375 C 13.691406 -11.253906 14.296875 -9.453125 14.296875 -7.203125 L 14.296875 -7.03125 C 14.296875 -5.632812 14.023438 -4.378906 13.484375 -3.265625 C 12.953125 -2.148438 12.1875 -1.28125 11.1875 -0.65625 C 10.195312 -0.0390625 9.054688 0.265625 7.765625 0.265625 C 5.816406 0.265625 4.234375 -0.410156 3.015625 -1.765625 C 1.804688 -3.117188 1.203125 -4.914062 1.203125 -7.15625 Z M 3.6875 -7.03125 C 3.6875 -5.4375 4.054688 -4.15625 4.796875 -3.1875 C 5.535156 -2.21875 6.523438 -1.734375 7.765625 -1.734375 C 9.015625 -1.734375 10.003906 -2.222656 10.734375 -3.203125 C 11.472656 -4.179688 11.84375 -5.554688 11.84375 -7.328125 C 11.84375 -8.898438 11.46875 -10.175781 10.71875 -11.15625 C 9.96875 -12.132812 8.972656 -12.625 7.734375 -12.625 C 6.523438 -12.625 5.546875 -12.140625 4.796875 -11.171875 C 4.054688 -10.210938 3.6875 -8.832031 3.6875 -7.03125 Z M 3.6875 -7.03125 "/></g></g></g><g fill="#004aad" fill-opacity="1"><g transform="translate(206.634286, 237.24089)"><g><path d="M 7.625 -1.734375 C 8.5 -1.734375 9.265625 -2 9.921875 -2.53125 C 10.578125 -3.0625 10.941406 -3.726562 11.015625 -4.53125 L 13.34375 -4.53125 C 13.300781 -3.707031 13.015625 -2.921875 12.484375 -2.171875 C 11.960938 -1.429688 11.265625 -0.835938 10.390625 -0.390625 C 9.523438 0.046875 8.601562 0.265625 7.625 0.265625 C 5.664062 0.265625 4.109375 -0.382812 2.953125 -1.6875 C 1.796875 -3 1.21875 -4.789062 1.21875 -7.0625 L 1.21875 -7.46875 C 1.21875 -8.863281 1.472656 -10.109375 1.984375 -11.203125 C 2.503906 -12.296875 3.242188 -13.140625 4.203125 -13.734375 C 5.160156 -14.335938 6.296875 -14.640625 7.609375 -14.640625 C 9.222656 -14.640625 10.5625 -14.15625 11.625 -13.1875 C 12.695312 -12.226562 13.269531 -10.976562 13.34375 -9.4375 L 11.015625 -9.4375 C 10.941406 -10.363281 10.585938 -11.125 9.953125 -11.71875 C 9.328125 -12.320312 8.546875 -12.625 7.609375 -12.625 C 6.359375 -12.625 5.390625 -12.171875 4.703125 -11.265625 C 4.023438 -10.367188 3.6875 -9.070312 3.6875 -7.375 L 3.6875 -6.90625 C 3.6875 -5.25 4.023438 -3.972656 4.703125 -3.078125 C 5.390625 -2.179688 6.363281 -1.734375 7.625 -1.734375 Z M 7.625 -1.734375 "/></g></g></g><g fill="#004aad" fill-opacity="1"><g transform="translate(220.881606, 237.24089)"><g><path d="M 4.53125 0 L 2.078125 0 L 2.078125 -14.375 L 4.53125 -14.375 Z M 1.875 -18.1875 C 1.875 -18.59375 1.992188 -18.929688 2.234375 -19.203125 C 2.484375 -19.472656 2.847656 -19.609375 3.328125 -19.609375 C 3.804688 -19.609375 4.164062 -19.472656 4.40625 -19.203125 C 4.65625 -18.929688 4.78125 -18.59375 4.78125 -18.1875 C 4.78125 -17.789062 4.65625 -17.457031 4.40625 -17.1875 C 4.164062 -16.925781 3.804688 -16.796875 3.328125 -16.796875 C 2.847656 -16.796875 2.484375 -16.925781 2.234375 -17.1875 C 1.992188 -17.457031 1.875 -17.789062 1.875 -18.1875 Z M 1.875 -18.1875 "/></g></g></g><g fill="#004aad" fill-opacity="1"><g transform="translate(227.486946, 237.24089)"><g><path d="M 7.828125 0.265625 C 5.878906 0.265625 4.289062 -0.375 3.0625 -1.65625 C 1.84375 -2.9375 1.234375 -4.648438 1.234375 -6.796875 L 1.234375 -7.25 C 1.234375 -8.675781 1.503906 -9.945312 2.046875 -11.0625 C 2.597656 -12.1875 3.363281 -13.0625 4.34375 -13.6875 C 5.320312 -14.320312 6.378906 -14.640625 7.515625 -14.640625 C 9.390625 -14.640625 10.84375 -14.023438 11.875 -12.796875 C 12.914062 -11.566406 13.4375 -9.804688 13.4375 -7.515625 L 13.4375 -6.484375 L 3.6875 -6.484375 C 3.726562 -5.066406 4.144531 -3.921875 4.9375 -3.046875 C 5.726562 -2.171875 6.738281 -1.734375 7.96875 -1.734375 C 8.832031 -1.734375 9.566406 -1.910156 10.171875 -2.265625 C 10.773438 -2.617188 11.300781 -3.09375 11.75 -3.6875 L 13.25 -2.515625 C 12.039062 -0.660156 10.234375 0.265625 7.828125 0.265625 Z M 7.515625 -12.625 C 6.523438 -12.625 5.691406 -12.257812 5.015625 -11.53125 C 4.347656 -10.8125 3.9375 -9.800781 3.78125 -8.5 L 10.984375 -8.5 L 10.984375 -8.6875 C 10.910156 -9.9375 10.570312 -10.90625 9.96875 -11.59375 C 9.363281 -12.28125 8.546875 -12.625 7.515625 -12.625 Z M 7.515625 -12.625 "/></g></g></g><g fill="#004aad" fill-opacity="1"><g transform="translate(241.907048, 237.24089)"><g><path d="M 5.203125 -17.859375 L 5.203125 -14.375 L 7.875 -14.375 L 7.875 -12.484375 L 5.203125 -12.484375 L 5.203125 -3.5625 C 5.203125 -2.988281 5.320312 -2.554688 5.5625 -2.265625 C 5.800781 -1.972656 6.207031 -1.828125 6.78125 -1.828125 C 7.0625 -1.828125 7.453125 -1.882812 7.953125 -2 L 7.953125 0 C 7.304688 0.175781 6.675781 0.265625 6.0625 0.265625 C 4.957031 0.265625 4.125 -0.0664062 3.5625 -0.734375 C 3.007812 -1.398438 2.734375 -2.34375 2.734375 -3.5625 L 2.734375 -12.484375 L 0.125 -12.484375 L 0.125 -14.375 L 2.734375 -14.375 L 2.734375 -17.859375 Z M 5.203125 -17.859375 "/></g></g></g><g fill="#004aad" fill-opacity="1"><g transform="translate(250.798339, 237.24089)"><g><path d="M 6.5625 -3.609375 L 9.921875 -14.375 L 12.546875 -14.375 L 6.765625 2.21875 C 5.867188 4.613281 4.445312 5.8125 2.5 5.8125 L 2.03125 5.765625 L 1.109375 5.59375 L 1.109375 3.609375 L 1.78125 3.65625 C 2.613281 3.65625 3.257812 3.484375 3.71875 3.140625 C 4.1875 2.804688 4.570312 2.191406 4.875 1.296875 L 5.421875 -0.15625 L 0.296875 -14.375 L 2.984375 -14.375 Z M 6.5625 -3.609375 "/></g></g></g><g fill="#004aad" fill-opacity="1"><g transform="translate(263.676754, 237.24089)"><g/></g></g><g fill="#004aad" fill-opacity="1"><g transform="translate(270.414998, 237.24089)"><g><path d="M 1.203125 -7.328125 C 1.203125 -8.734375 1.476562 -10 2.03125 -11.125 C 2.59375 -12.25 3.363281 -13.113281 4.34375 -13.71875 C 5.332031 -14.332031 6.460938 -14.640625 7.734375 -14.640625 C 9.691406 -14.640625 11.273438 -13.960938 12.484375 -12.609375 C 13.691406 -11.253906 14.296875 -9.453125 14.296875 -7.203125 L 14.296875 -7.03125 C 14.296875 -5.632812 14.023438 -4.378906 13.484375 -3.265625 C 12.953125 -2.148438 12.1875 -1.28125 11.1875 -0.65625 C 10.195312 -0.0390625 9.054688 0.265625 7.765625 0.265625 C 5.816406 0.265625 4.234375 -0.410156 3.015625 -1.765625 C 1.804688 -3.117188 1.203125 -4.914062 1.203125 -7.15625 Z M 3.6875 -7.03125 C 3.6875 -5.4375 4.054688 -4.15625 4.796875 -3.1875 C 5.535156 -2.21875 6.523438 -1.734375 7.765625 -1.734375 C 9.015625 -1.734375 10.003906 -2.222656 10.734375 -3.203125 C 11.472656 -4.179688 11.84375 -5.554688 11.84375 -7.328125 C 11.84375 -8.898438 11.46875 -10.175781 10.71875 -11.15625 C 9.96875 -12.132812 8.972656 -12.625 7.734375 -12.625 C 6.523438 -12.625 5.546875 -12.140625 4.796875 -11.171875 C 4.054688 -10.210938 3.6875 -8.832031 3.6875 -7.03125 Z M 3.6875 -7.03125 "/></g></g></g><g fill="#004aad" fill-opacity="1"><g transform="translate(285.938198, 237.24089)"><g><path d="M 3.0625 0 L 3.0625 -12.484375 L 0.796875 -12.484375 L 0.796875 -14.375 L 3.0625 -14.375 L 3.0625 -15.859375 C 3.0625 -17.398438 3.472656 -18.585938 4.296875 -19.421875 C 5.128906 -20.265625 6.296875 -20.6875 7.796875 -20.6875 C 8.367188 -20.6875 8.929688 -20.613281 9.484375 -20.46875 L 9.359375 -18.46875 C 8.941406 -18.550781 8.5 -18.59375 8.03125 -18.59375 C 7.226562 -18.59375 6.609375 -18.359375 6.171875 -17.890625 C 5.742188 -17.429688 5.53125 -16.765625 5.53125 -15.890625 L 5.53125 -14.375 L 8.59375 -14.375 L 8.59375 -12.484375 L 5.53125 -12.484375 L 5.53125 0 Z M 3.0625 0 "/></g></g></g><g fill="#004aad" fill-opacity="1"><g transform="translate(295.387686, 237.24089)"><g/></g></g><g fill="#004aad" fill-opacity="1"><g transform="translate(302.125931, 237.24089)"><g><path d="M 4.984375 0 L 2.4375 0 L 2.4375 -19.34375 L 4.984375 -19.34375 Z M 4.984375 0 "/></g></g></g><g fill="#004aad" fill-opacity="1"><g transform="translate(309.528696, 237.24089)"><g><path d="M 4.1875 -14.375 L 4.265625 -12.578125 C 5.367188 -13.953125 6.804688 -14.640625 8.578125 -14.640625 C 11.609375 -14.640625 13.140625 -12.925781 13.171875 -9.5 L 13.171875 0 L 10.71875 0 L 10.71875 -9.515625 C 10.707031 -10.554688 10.46875 -11.320312 10 -11.8125 C 9.53125 -12.3125 8.804688 -12.5625 7.828125 -12.5625 C 7.023438 -12.5625 6.320312 -12.347656 5.71875 -11.921875 C 5.125 -11.492188 4.65625 -10.9375 4.3125 -10.25 L 4.3125 0 L 1.859375 0 L 1.859375 -14.375 Z M 4.1875 -14.375 "/></g></g></g><g fill="#004aad" fill-opacity="1"><g transform="translate(324.54686, 237.24089)"><g><path d="M 1.265625 -7.3125 C 1.265625 -9.519531 1.785156 -11.289062 2.828125 -12.625 C 3.878906 -13.96875 5.25 -14.640625 6.9375 -14.640625 C 8.625 -14.640625 9.957031 -14.066406 10.9375 -12.921875 L 10.9375 -20.421875 L 13.390625 -20.421875 L 13.390625 0 L 11.140625 0 L 11.015625 -1.546875 C 10.035156 -0.335938 8.664062 0.265625 6.90625 0.265625 C 5.238281 0.265625 3.878906 -0.414062 2.828125 -1.78125 C 1.785156 -3.144531 1.265625 -4.925781 1.265625 -7.125 Z M 3.71875 -7.03125 C 3.71875 -5.394531 4.050781 -4.117188 4.71875 -3.203125 C 5.394531 -2.285156 6.328125 -1.828125 7.515625 -1.828125 C 9.078125 -1.828125 10.21875 -2.523438 10.9375 -3.921875 L 10.9375 -10.53125 C 10.195312 -11.882812 9.066406 -12.5625 7.546875 -12.5625 C 6.335938 -12.5625 5.394531 -12.09375 4.71875 -11.15625 C 4.050781 -10.226562 3.71875 -8.851562 3.71875 -7.03125 Z M 3.71875 -7.03125 "/></g></g></g><g fill="#004aad" fill-opacity="1"><g transform="translate(339.897291, 237.24089)"><g><path d="M 4.53125 0 L 2.078125 0 L 2.078125 -14.375 L 4.53125 -14.375 Z M 1.875 -18.1875 C 1.875 -18.59375 1.992188 -18.929688 2.234375 -19.203125 C 2.484375 -19.472656 2.847656 -19.609375 3.328125 -19.609375 C 3.804688 -19.609375 4.164062 -19.472656 4.40625 -19.203125 C 4.65625 -18.929688 4.78125 -18.59375 4.78125 -18.1875 C 4.78125 -17.789062 4.65625 -17.457031 4.40625 -17.1875 C 4.164062 -16.925781 3.804688 -16.796875 3.328125 -16.796875 C 2.847656 -16.796875 2.484375 -16.925781 2.234375 -17.1875 C 1.992188 -17.457031 1.875 -17.789062 1.875 -18.1875 Z M 1.875 -18.1875 "/></g></g></g><g fill="#004aad" fill-opacity="1"><g transform="translate(346.502631, 237.24089)"><g><path d="M 10.734375 0 C 10.597656 -0.28125 10.484375 -0.785156 10.390625 -1.515625 C 9.242188 -0.328125 7.878906 0.265625 6.296875 0.265625 C 4.878906 0.265625 3.71875 -0.132812 2.8125 -0.9375 C 1.90625 -1.738281 1.453125 -2.753906 1.453125 -3.984375 C 1.453125 -5.484375 2.019531 -6.644531 3.15625 -7.46875 C 4.289062 -8.300781 5.894531 -8.71875 7.96875 -8.71875 L 10.359375 -8.71875 L 10.359375 -9.84375 C 10.359375 -10.707031 10.097656 -11.394531 9.578125 -11.90625 C 9.066406 -12.414062 8.3125 -12.671875 7.3125 -12.671875 C 6.4375 -12.671875 5.703125 -12.445312 5.109375 -12 C 4.515625 -11.5625 4.21875 -11.023438 4.21875 -10.390625 L 1.734375 -10.390625 C 1.734375 -11.109375 1.988281 -11.800781 2.5 -12.46875 C 3.007812 -13.132812 3.703125 -13.660156 4.578125 -14.046875 C 5.453125 -14.441406 6.410156 -14.640625 7.453125 -14.640625 C 9.109375 -14.640625 10.40625 -14.222656 11.34375 -13.390625 C 12.289062 -12.566406 12.78125 -11.429688 12.8125 -9.984375 L 12.8125 -3.359375 C 12.8125 -2.035156 12.976562 -0.988281 13.3125 -0.21875 L 13.3125 0 Z M 6.65625 -1.875 C 7.425781 -1.875 8.15625 -2.070312 8.84375 -2.46875 C 9.539062 -2.863281 10.046875 -3.382812 10.359375 -4.03125 L 10.359375 -6.984375 L 8.421875 -6.984375 C 5.410156 -6.984375 3.90625 -6.097656 3.90625 -4.328125 C 3.90625 -3.554688 4.160156 -2.953125 4.671875 -2.515625 C 5.191406 -2.085938 5.851562 -1.875 6.65625 -1.875 Z M 6.65625 -1.875 "/></g></g></g><path stroke-linecap="butt" transform="matrix(0, 0.75, -0.75, 0, 168.299993, 127.499992)" fill="none" stroke-linejoin="miter" d="M 0.0000111633 1.99895 L 160.000022 1.99895 " stroke="#004aad" stroke-width="4" stroke-opacity="1" stroke-miterlimit="4"/></svg>